<svg height='100px' width='100px'  fill="#ffffff" xmlns="http://www.w3.org/2000/svg" xmlns:xlink="http://www.w3.org/1999/xlink" version="1.1" x="0px" y="0px" viewBox="0 0 512 512" style="enable-background:new 0 0 512 512;" xml:space="preserve"><g><path d="M460.546,281.134c-0.881-17.29-12.675-33.756-30.041-41.931c-19.302-9.079-41.592,0.03-59.428,11.672   c-0.626-2.44-0.984-4.936-1.744-7.343c-4.75-61.727-253.7-62.734-266.332-2.996c-0.049,0.123-0.151,0.206-0.194,0.333   c-4.787,14.111-7.218,28.873-7.218,43.865c0,16.61,3.136,32.474,8.603,47.24c-34.005,17.275-52.832,40.257-52.832,65.362   c0,52.118,81.163,92.958,184.766,92.958s184.766-40.84,184.766-92.958c0-12.109-4.721-24.022-13.374-35.011   c2.216-1.192,4.496-2.333,6.615-3.608c12.484-7.467,21.808-15.203,28.49-23.627C455.146,319.313,461.503,300.166,460.546,281.134z    M375.173,295.51l5.435-3.673c6.931-4.078,12.043-7.103,16.351-9.133c8.348-3.906,15.394-3.657,19.357,0.708   c3.963,4.327,4.021,11.737,0.134,18.4c-1.953,3.37-3.695,5.629-4.212,6.338c-7.236,10.971-27.014,21.809-47.447,30.095   C370.476,324.936,373.989,310.542,375.173,295.51z M235.973,211.382c71.973,0,117.887,20.085,117.887,33.909   c0,3.7-3.516,7.837-9.712,11.926c-25.44-16.046-65.115-25.616-107.926-25.616c-42.989,0-82.74,9.621-108.155,25.768   c-6.347-4.139-9.98-8.332-9.98-12.078C118.087,231.467,164,211.382,235.973,211.382z M326.899,265.467   c-20.529,7.678-51.644,13.714-90.926,13.714c-39.103,0-70.119-5.981-90.654-13.607c22.947-11.536,55.577-18.272,90.903-18.272   C271.395,247.302,303.942,253.996,326.899,265.467z M112.835,265.701c21.345,19.204,72.429,29.181,123.138,29.181   c50.273,0,100.955-9.792,122.623-28.675c0.938,6.114,1.429,12.303,1.429,18.527c0,67.569-55.794,122.539-124.377,122.539   s-124.358-54.97-124.358-122.539C111.289,278.328,111.842,271.975,112.835,265.701z M236.126,474.593   c-91.656,0-169.066-35.383-169.066-77.257c0-18.436,15.802-36.737,43.393-50.994c23.007,45.349,70.417,76.631,125.195,76.631   c35.436,0,67.744-13.159,92.441-34.648l33.411-8.528c11.487-2.926,21.845-6.438,31.432-10.477   c7.982,9.019,12.261,18.41,12.261,28.015C405.192,439.21,327.782,474.593,236.126,474.593z M430.332,325.344   c-5.419,6.835-13.575,13.537-24.259,19.932c-13.575,8.157-29.429,14.475-48.441,19.319l-9.737,2.485   c1.953-2.586,3.844-5.212,5.614-7.932c18.715-6.302,58.106-21.546,71.425-41.827c0,0,2.393-3.006,5.074-7.62   c7.372-12.618,6.51-27.437-2.106-36.877c-8.808-9.612-22.88-11.22-37.604-4.327c-3.941,1.866-8.878,4.709-15.177,8.407   c-0.178-3.117-0.334-6.237-0.724-9.327c13.138-9.429,34.195-21.328,49.447-14.167c12.005,5.648,20.449,17.117,21.042,28.529   C445.65,297.141,440.48,312.554,430.332,325.344z"></path><path d="M239.907,162.496l7.473,10.971l-0.359,3.528c-0.44,4.308,2.681,8.156,7.008,8.578c0.268,0.038,0.536,0.057,0.785,0.057   c3.983,0,7.391-3.025,7.793-7.065l0.516-5.071c0.999-2.033,1.846-4.261,2.739-7.01c2.098-6.512,5.116-15.388,13.112-26.388   c7.445-3.208,18.037-7.09,29.777-9.015c87.462-14.398,86.984-90.966,86.984-91.732c-0.077-3.121-1.991-5.897-4.882-7.084   c-2.891-1.149-6.223-0.536-8.482,1.647l-0.632,0.574c-3.063,2.642-20.353,15.968-59.987,19.932   c-42.086,4.231-54.602,50.564-55.62,76.646c-6.584,9.086-10.349,17.027-12.715,23.377l-0.294-0.436   c0.048-7.105,0.681-16.82,3.262-26.887c19.74-77.219-43.616-104.541-44.267-104.809c-2.872-1.245-6.165-0.498-8.444,1.685   c-2.24,2.183-2.949,5.572-1.838,8.501l0.153,0.44c0,0.038,0.019,0.077,0.038,0.115c1.034,3.389,5.687,21.961-5.208,55.564   C185.031,124.975,218.736,152.191,239.907,162.496z M323.321,70.041c25.867-2.604,43.501-8.961,54.607-14.609   c-4.806,19.702-20.525,51.754-71.724,60.178c-8.539,1.398-16.543,3.695-23.378,6.108   C285.525,104.026,294.371,72.932,323.321,70.041z M211.753,93.438c6.778-20.947,8.157-37.087,7.754-48.231   c14.054,11.373,32.607,35.23,21.674,78.023c-1.781,7.008-2.776,13.881-3.293,19.989   C224.523,134.527,204.151,116.855,211.753,93.438z"></path></g></svg>